<?xml version="1.0" standalone="no"?>
<!DOCTYPE svg PUBLIC "-//W3C//DTD SVG 20010904//EN"
 "http://www.w3.org/TR/2001/REC-SVG-20010904/DTD/svg10.dtd">
<svg version="1.0" xmlns="http://www.w3.org/2000/svg"
 width="4500.000000pt" height="4500.000000pt" viewBox="0 0 4500.000000 4500.000000"
 preserveAspectRatio="xMidYMid meet">
<metadata>
Created by potrace 1.11, written by Peter Selinger 2001-2013
</metadata>
<g transform="translate(0.000000,4500.000000) scale(0.100000,-0.100000)"
fill="#000000" stroke="none">
<path d="M21948 42495 c-2 -2 -88 -6 -193 -9 -215 -8 -326 -13 -435 -20 -41
-3 -120 -8 -175 -11 -97 -6 -126 -8 -272 -20 -103 -8 -254 -22 -333 -30 -14
-2 -61 -6 -105 -10 -44 -4 -87 -8 -95 -10 -8 -2 -44 -6 -80 -10 -85 -8 -127
-13 -170 -19 -19 -3 -62 -8 -95 -12 -33 -3 -69 -8 -80 -9 -11 -2 -60 -8 -110
-15 -88 -11 -124 -16 -175 -25 -14 -2 -45 -7 -70 -10 -25 -3 -54 -7 -65 -9
-11 -2 -42 -7 -68 -10 -26 -4 -70 -11 -97 -16 -27 -5 -71 -12 -97 -16 -26 -3
-120 -19 -208 -34 -88 -16 -176 -32 -195 -35 -19 -3 -136 -27 -260 -52 -124
-25 -236 -47 -250 -50 -21 -3 -61 -12 -130 -28 -8 -2 -94 -22 -190 -44 -377
-86 -740 -181 -1170 -306 -285 -82 -749 -234 -1080 -353 -107 -39 -222 -80
-255 -92 -33 -12 -69 -25 -80 -30 -11 -5 -139 -56 -285 -113 -285 -112 -667
-274 -900 -381 -80 -37 -176 -81 -215 -99 -102 -46 -786 -388 -880 -440 -44
-24 -116 -63 -160 -87 -793 -429 -1628 -961 -2363 -1504 -48 -36 -91 -69 -97
-73 -5 -5 -57 -44 -115 -88 -250 -188 -706 -556 -891 -718 -14 -12 -52 -44
-84 -72 -32 -27 -63 -54 -69 -60 -6 -5 -45 -39 -86 -75 -41 -36 -81 -72 -90
-80 -9 -8 -59 -53 -110 -100 -136 -123 -134 -121 -265 -243 -138 -128 -707
-695 -840 -838 -50 -53 -135 -145 -190 -204 -55 -60 -107 -116 -115 -125 -8
-9 -62 -70 -120 -135 -57 -66 -107 -122 -110 -125 -3 -3 -30 -34 -60 -70 -30
-35 -62 -72 -70 -80 -8 -9 -24 -27 -35 -41 -93 -112 -171 -205 -175 -209 -8
-7 -220 -269 -252 -310 -38 -50 -196 -252 -211 -270 -6 -8 -39 -51 -71 -95
-33 -44 -63 -82 -66 -85 -5 -5 -55 -72 -222 -303 -218 -301 -526 -759 -718
-1067 -56 -91 -112 -181 -125 -200 -38 -59 -176 -292 -208 -350 -16 -30 -36
-62 -43 -71 -8 -8 -14 -18 -14 -22 0 -4 -22 -44 -48 -89 -92 -157 -257 -459
-378 -693 -231 -447 -453 -917 -634 -1345 -45 -107 -88 -208 -95 -225 -8 -16
-34 -82 -59 -145 -26 -63 -51 -124 -55 -135 -5 -11 -23 -56 -39 -100 -17 -44
-48 -127 -70 -185 -136 -356 -398 -1130 -437 -1290 -3 -8 -23 -78 -45 -155
-145 -490 -339 -1279 -404 -1635 -2 -14 -11 -59 -20 -100 -13 -66 -66 -351
-81 -435 -10 -61 -37 -221 -40 -245 -7 -46 -15 -95 -20 -120 -2 -14 -7 -45
-10 -70 -4 -25 -8 -56 -10 -70 -16 -98 -25 -163 -30 -210 -3 -30 -10 -80 -15
-110 -5 -30 -12 -84 -16 -120 -3 -36 -8 -73 -9 -82 -2 -9 -6 -48 -10 -85 -3
-37 -8 -79 -10 -93 -5 -28 -15 -114 -20 -175 -2 -22 -6 -65 -9 -95 -6 -55 -11
-110 -21 -230 -3 -36 -8 -83 -10 -105 -3 -22 -7 -87 -11 -145 -3 -58 -7 -121
-9 -140 -2 -19 -7 -91 -10 -160 -4 -69 -8 -154 -10 -190 -21 -369 -28 -1357
-11 -1755 13 -324 13 -324 20 -420 3 -49 8 -130 11 -180 3 -49 7 -116 10 -147
6 -71 13 -151 20 -243 5 -66 8 -96 19 -205 3 -25 8 -76 11 -115 3 -38 8 -81
10 -95 2 -14 7 -52 10 -85 3 -33 8 -73 10 -90 2 -16 7 -59 10 -95 4 -35 8 -71
10 -80 2 -9 6 -43 10 -75 4 -33 9 -67 11 -77 1 -9 5 -36 8 -60 12 -89 37 -264
42 -293 3 -16 7 -43 9 -60 7 -53 35 -230 40 -245 2 -8 7 -35 10 -60 3 -25 10
-65 14 -90 5 -25 14 -72 20 -105 74 -409 194 -972 272 -1269 11 -43 22 -86 24
-95 17 -87 188 -697 279 -996 50 -161 233 -712 250 -750 8 -16 17 -41 21 -55
15 -51 224 -607 251 -667 8 -18 26 -63 40 -100 14 -37 34 -85 44 -108 10 -22
38 -89 63 -150 218 -528 663 -1443 924 -1900 12 -22 26 -47 30 -55 9 -19 219
-385 244 -425 10 -16 22 -37 26 -45 3 -8 19 -34 35 -57 15 -23 28 -44 28 -47
0 -12 377 -611 490 -776 111 -165 171 -252 264 -383 61 -87 116 -166 121 -176
6 -9 37 -52 69 -96 33 -44 105 -141 160 -215 93 -125 424 -554 466 -603 10
-12 78 -94 150 -182 133 -161 206 -249 225 -269 6 -6 53 -60 105 -121 52 -60
99 -115 105 -121 5 -6 44 -49 85 -95 320 -357 936 -989 1221 -1251 58 -54 119
-110 136 -125 16 -16 59 -54 94 -87 35 -32 82 -75 104 -95 131 -120 518 -450
775 -661 273 -223 806 -625 1110 -837 122 -86 748 -503 753 -503 3 0 38 -22
79 -48 129 -86 587 -360 813 -487 113 -63 311 -172 325 -178 8 -4 38 -20 65
-35 210 -117 731 -378 1005 -504 30 -14 91 -42 135 -63 133 -61 457 -202 613
-266 81 -33 156 -64 167 -69 79 -37 890 -343 940 -355 6 -1 17 -5 25 -8 19 -8
371 -125 515 -170 99 -32 314 -97 485 -146 36 -11 90 -26 120 -35 72 -21 389
-107 409 -111 9 -2 63 -15 121 -30 58 -15 179 -45 270 -66 91 -22 172 -41 180
-43 8 -2 49 -11 90 -20 228 -48 266 -57 280 -61 8 -2 31 -7 50 -10 19 -3 78
-14 130 -25 124 -25 317 -61 355 -67 17 -2 50 -8 75 -13 25 -6 59 -12 75 -14
17 -2 89 -13 160 -25 72 -12 141 -24 155 -26 14 -2 48 -7 75 -11 61 -9 59 -8
165 -23 47 -7 96 -14 110 -17 14 -2 49 -7 79 -10 30 -3 62 -7 71 -9 8 -2 43
-6 75 -10 33 -4 71 -8 85 -10 14 -2 52 -7 85 -10 33 -3 71 -8 85 -10 14 -3 54
-7 90 -10 36 -3 81 -8 100 -10 58 -7 131 -14 200 -20 81 -7 159 -13 230 -19
120 -11 317 -25 445 -32 55 -3 134 -7 175 -9 504 -27 1485 -28 2005 -1 33 2
121 7 195 10 74 4 151 9 170 11 19 2 82 7 140 10 58 3 112 8 120 10 8 2 58 6
110 10 52 4 109 8 125 10 17 1 66 6 110 10 44 3 91 8 105 10 14 2 52 7 85 10
33 3 76 8 95 10 19 3 60 7 90 10 30 3 64 7 75 9 11 2 52 7 90 10 39 4 77 9 85
11 8 2 51 9 95 14 44 6 91 13 105 15 21 4 76 11 160 22 14 2 76 11 130 19 37
6 451 75 480 81 14 2 63 11 109 19 86 15 244 47 456 91 318 66 904 207 1175
284 41 11 82 22 90 24 8 2 94 27 190 56 96 28 180 53 185 54 141 34 851 272
1210 406 363 135 870 342 1138 464 943 428 1669 814 2472 1313 154 96 768 502
890 589 401 285 752 550 1085 818 69 55 127 103 130 106 3 3 28 24 55 45 28
22 52 43 55 46 3 3 34 30 70 60 36 29 70 58 76 64 6 5 30 26 54 45 24 19 51
42 59 50 9 9 47 43 86 75 38 33 76 67 85 75 9 8 39 35 66 58 91 81 299 272
454 417 47 44 225 220 395 390 269 268 398 403 605 629 25 26 56 60 70 75 14
15 57 62 95 106 39 43 77 86 85 95 8 9 40 45 70 80 50 58 98 114 125 144 6 6
55 65 110 131 55 66 102 122 105 125 11 10 257 317 345 430 50 63 92 117 95
120 13 11 305 407 418 565 67 94 134 188 150 210 16 22 73 105 126 185 54 80
103 152 110 160 6 8 22 33 36 55 13 22 28 45 32 50 14 18 138 208 138 212 0 2
22 36 49 76 26 40 56 86 65 102 9 17 27 46 39 66 152 243 545 920 578 994 5
11 33 65 63 120 30 55 88 165 128 245 40 80 75 147 78 150 3 3 21 37 39 75
219 451 234 483 321 675 29 63 65 143 81 178 16 35 29 66 29 70 0 4 7 20 16
37 8 16 49 110 90 210 41 99 79 189 84 200 5 11 32 79 60 150 29 72 55 139 60
150 4 11 15 38 23 60 8 22 27 72 42 110 142 366 365 1030 492 1465 46 159 160
575 169 617 1 6 7 27 13 45 6 18 12 44 15 58 3 14 25 108 50 210 41 170 118
511 130 570 2 14 20 104 39 200 20 96 41 203 47 237 13 71 18 97 25 133 8 36
75 447 81 495 3 22 7 51 10 65 6 39 33 221 39 265 2 22 7 56 9 75 3 19 8 55
11 80 3 25 8 63 10 85 11 80 15 111 20 160 3 28 7 66 10 85 11 100 20 179 30
295 4 39 8 81 10 95 2 14 7 63 10 110 4 47 8 101 10 120 2 19 6 78 10 130 3
52 8 122 11 155 2 33 7 110 10 170 3 61 7 137 9 170 28 455 27 1506 0 2020 -8
143 -15 262 -19 325 -3 36 -8 106 -11 155 -3 50 -8 106 -10 125 -3 19 -7 69
-10 110 -6 87 -14 180 -20 230 -3 19 -7 64 -10 100 -3 36 -7 81 -10 100 -2 19
-6 58 -10 85 -3 28 -8 70 -11 95 -3 25 -7 62 -10 83 -7 63 -13 110 -19 157 -3
25 -8 63 -11 85 -2 22 -11 87 -20 145 -9 58 -18 121 -20 140 -7 55 -14 104
-19 120 -2 8 -6 38 -10 65 -3 28 -17 113 -30 190 -13 77 -26 156 -29 175 -4
19 -11 55 -16 80 -5 25 -12 61 -14 80 -6 37 -11 66 -22 115 -4 17 -8 39 -10
50 -5 33 -51 265 -68 340 -9 39 -18 81 -20 95 -5 30 -28 129 -61 265 -13 55
-26 111 -29 125 -6 31 -90 366 -110 438 -8 29 -14 53 -14 55 1 10 -105 391
-151 542 -5 17 -24 77 -41 135 -42 139 -223 698 -254 780 -13 36 -47 130 -75
210 -29 80 -58 161 -66 180 -8 19 -37 96 -65 170 -50 132 -228 576 -255 635
-8 17 -52 118 -99 225 -46 107 -107 244 -135 303 -28 60 -51 110 -51 111 0 13
-325 671 -395 801 -18 33 -58 110 -90 170 -56 107 -92 172 -143 265 -14 25
-31 54 -37 65 -13 25 -135 237 -156 273 -9 15 -27 47 -41 72 -37 67 -249 415
-346 570 -153 245 -525 797 -687 1019 -122 168 -480 647 -495 661 -4 4 -189
233 -270 334 -43 55 -223 270 -259 311 -20 23 -58 67 -86 100 -27 32 -55 63
-60 69 -6 6 -42 47 -80 91 -39 44 -74 85 -80 91 -5 6 -46 50 -90 99 -80 88
-148 162 -300 325 -44 47 -222 227 -395 400 -308 308 -436 431 -709 679 -47
42 -97 88 -112 102 -16 14 -54 47 -85 75 -32 27 -62 54 -68 59 -6 6 -43 37
-81 70 -39 33 -76 65 -83 72 -7 7 -34 29 -60 50 -26 21 -49 40 -52 43 -25 28
-488 403 -645 523 -160 124 -453 340 -600 445 -93 67 -181 130 -195 140 -56
43 -587 396 -750 498 -290 183 -578 356 -745 450 -38 21 -79 44 -90 51 -11 7
-27 15 -35 19 -8 4 -31 17 -50 29 -37 23 -85 49 -297 163 -651 351 -1370 688
-1988 933 -82 33 -159 64 -170 69 -35 16 -405 155 -545 205 -156 55 -476 167
-485 169 -5 1 -82 25 -170 53 -236 76 -477 149 -600 183 -16 4 -88 25 -160 45
-130 36 -449 120 -515 136 -19 4 -73 17 -120 28 -47 12 -125 30 -175 42 -49
11 -97 22 -105 24 -15 4 -235 52 -365 80 -38 8 -86 17 -105 20 -19 3 -51 10
-70 15 -19 5 -51 12 -70 15 -19 3 -60 10 -90 16 -30 6 -64 12 -75 13 -11 2
-29 6 -40 9 -11 3 -40 8 -65 11 -50 7 -83 13 -108 20 -9 3 -37 8 -62 11 -62 9
-109 16 -134 21 -11 2 -50 9 -86 15 -36 5 -77 12 -91 14 -14 3 -41 7 -60 9
-19 3 -83 12 -144 21 -60 8 -128 18 -150 21 -22 2 -58 7 -80 10 -22 3 -51 7
-65 9 -14 2 -43 6 -65 9 -22 3 -65 8 -95 11 -30 3 -66 7 -80 10 -28 4 -120 14
-285 30 -33 3 -76 8 -95 10 -19 2 -63 7 -97 10 -35 3 -89 7 -120 10 -131 11
-182 16 -253 20 -245 17 -321 22 -485 30 -60 3 -157 8 -215 11 -110 6 -1336
14 -1342 9z m1347 -1359 c33 -2 116 -7 185 -11 180 -9 245 -13 335 -20 44 -4
107 -8 140 -10 82 -6 281 -23 340 -30 17 -2 62 -6 100 -10 39 -3 84 -8 100
-10 17 -2 57 -7 90 -10 33 -3 76 -8 95 -10 19 -3 55 -7 80 -10 71 -8 133 -16
160 -20 14 -2 63 -9 110 -15 47 -6 96 -13 110 -15 14 -2 45 -7 70 -10 25 -3
52 -8 60 -10 8 -2 38 -6 65 -10 62 -7 555 -91 650 -110 39 -8 81 -16 95 -19
14 -3 52 -10 85 -16 33 -7 130 -27 215 -45 85 -19 166 -36 180 -39 54 -11 149
-33 230 -53 14 -3 30 -7 35 -8 6 -2 51 -13 100 -25 50 -12 97 -23 105 -25 64
-13 625 -166 700 -190 25 -8 92 -28 150 -45 473 -139 1327 -444 1750 -625 30
-13 105 -45 165 -70 121 -52 119 -51 385 -170 396 -177 972 -468 1415 -715
227 -126 756 -444 887 -532 31 -21 60 -38 63 -38 3 0 11 -5 18 -10 7 -6 116
-79 242 -162 127 -83 232 -154 235 -157 3 -4 41 -31 85 -61 78 -53 386 -273
409 -291 6 -5 99 -75 206 -156 107 -80 220 -166 250 -190 30 -24 62 -50 70
-56 108 -86 392 -317 415 -338 17 -14 82 -71 145 -125 63 -53 120 -102 126
-108 6 -6 35 -31 64 -56 29 -25 58 -50 64 -55 6 -6 61 -55 121 -110 61 -54
115 -104 121 -109 6 -6 69 -65 140 -131 164 -153 683 -671 835 -835 166 -178
288 -311 342 -374 10 -12 31 -34 45 -51 15 -16 69 -79 121 -140 52 -60 99
-114 105 -120 6 -5 28 -31 49 -57 21 -26 43 -53 50 -60 12 -13 91 -109 114
-138 6 -8 36 -44 65 -80 30 -36 97 -119 148 -185 52 -66 99 -125 105 -132 91
-109 453 -605 651 -893 249 -360 631 -966 770 -1218 31 -57 68 -122 101 -177
156 -263 558 -1053 718 -1410 37 -82 80 -177 95 -210 15 -33 51 -116 80 -185
29 -69 60 -143 70 -165 25 -55 150 -369 201 -501 209 -548 384 -1078 558
-1694 35 -123 156 -595 175 -684 8 -33 24 -104 36 -156 33 -144 107 -496 133
-640 3 -14 14 -74 25 -135 23 -119 23 -121 52 -300 11 -66 22 -131 25 -145 2
-13 7 -42 10 -65 3 -22 10 -67 15 -100 5 -33 11 -78 14 -100 19 -145 38 -284
41 -305 2 -14 6 -50 10 -80 3 -30 7 -71 10 -90 2 -19 7 -57 10 -85 3 -27 7
-72 10 -100 3 -27 8 -66 10 -85 2 -19 7 -64 10 -100 3 -36 8 -81 10 -100 2
-19 7 -71 10 -115 3 -44 8 -100 10 -125 4 -48 12 -159 20 -300 3 -47 7 -116
10 -155 21 -332 28 -1394 11 -1755 -15 -333 -25 -519 -31 -570 -2 -19 -7 -78
-10 -130 -4 -52 -8 -108 -10 -125 -2 -16 -6 -66 -10 -110 -3 -44 -8 -96 -10
-115 -2 -19 -7 -64 -10 -100 -4 -36 -8 -83 -11 -105 -5 -43 -10 -86 -19 -177
-3 -31 -8 -66 -10 -77 -2 -11 -6 -47 -10 -80 -3 -33 -8 -70 -10 -83 -3 -13 -7
-43 -10 -68 -3 -25 -8 -63 -11 -85 -3 -22 -7 -49 -9 -60 -6 -47 -27 -187 -41
-275 -8 -52 -17 -106 -19 -120 -6 -39 -44 -253 -48 -275 -6 -27 -15 -82 -23
-129 -3 -21 -8 -48 -10 -60 -11 -52 -26 -123 -30 -146 -47 -251 -195 -894
-254 -1105 -11 -38 -43 -153 -70 -254 -181 -660 -487 -1547 -741 -2146 -17
-38 -34 -79 -39 -90 -4 -11 -17 -40 -28 -65 -11 -25 -32 -74 -46 -110 -15 -36
-34 -79 -41 -96 -8 -16 -27 -59 -43 -95 -270 -594 -571 -1185 -867 -1694 -51
-88 -101 -175 -111 -192 -160 -276 -583 -931 -758 -1175 -23 -31 -48 -66 -56
-78 -15 -22 -175 -245 -207 -289 -40 -55 -277 -368 -297 -392 -12 -14 -32 -40
-46 -59 -50 -66 -246 -308 -368 -454 -69 -82 -132 -158 -141 -169 -9 -11 -25
-29 -36 -41 -11 -12 -47 -53 -80 -91 -84 -98 -228 -260 -289 -325 -28 -31
-105 -114 -171 -185 -215 -232 -762 -774 -996 -987 -81 -74 -187 -169 -209
-188 -14 -12 -40 -35 -58 -52 -31 -27 -148 -130 -212 -184 -84 -72 -192 -164
-229 -194 -24 -19 -48 -40 -54 -45 -7 -6 -41 -34 -77 -63 -242 -198 -637 -501
-870 -667 -30 -22 -59 -44 -65 -48 -5 -5 -107 -76 -225 -158 -118 -82 -220
-152 -225 -157 -6 -5 -15 -11 -20 -13 -6 -2 -62 -38 -125 -80 -182 -120 -276
-181 -405 -261 -112 -70 -457 -277 -531 -319 -19 -10 -51 -29 -71 -40 -21 -12
-72 -41 -113 -64 -75 -42 -137 -76 -260 -143 -36 -20 -101 -55 -145 -80 -95
-52 -690 -349 -825 -411 -175 -81 -465 -213 -480 -218 -16 -5 -32 -12 -103
-43 -606 -265 -1615 -621 -2247 -793 -30 -9 -131 -36 -225 -62 -93 -26 -178
-48 -189 -50 -10 -3 -64 -16 -120 -31 -55 -14 -108 -27 -116 -29 -8 -2 -64
-15 -125 -29 -60 -15 -120 -28 -133 -31 -13 -2 -32 -7 -42 -10 -10 -3 -29 -8
-42 -10 -13 -3 -34 -7 -48 -10 -14 -3 -34 -7 -45 -9 -11 -2 -50 -11 -86 -20
-37 -8 -78 -17 -91 -20 -14 -2 -72 -13 -129 -25 -57 -11 -115 -23 -129 -25
-14 -3 -88 -16 -165 -30 -77 -14 -156 -29 -175 -32 -19 -3 -44 -8 -55 -10 -75
-13 -268 -44 -305 -49 -25 -3 -52 -8 -60 -10 -8 -2 -42 -7 -75 -10 -32 -4 -62
-8 -65 -10 -3 -2 -34 -6 -70 -10 -36 -4 -72 -9 -81 -10 -9 -2 -40 -6 -70 -10
-30 -3 -61 -8 -69 -10 -8 -2 -48 -7 -87 -10 -40 -3 -80 -8 -90 -9 -10 -2 -47
-7 -83 -11 -36 -3 -76 -8 -90 -10 -14 -2 -59 -7 -100 -10 -41 -3 -86 -8 -100
-10 -14 -2 -59 -7 -100 -10 -95 -7 -170 -13 -240 -20 -30 -3 -91 -8 -135 -10
-44 -2 -116 -7 -160 -10 -390 -25 -571 -30 -1155 -30 -502 0 -740 5 -1000 20
-207 12 -331 20 -455 30 -49 4 -108 8 -130 10 -70 5 -178 15 -233 21 -30 3
-75 7 -100 10 -26 2 -67 6 -92 9 -77 10 -113 14 -175 20 -67 7 -114 13 -165
20 -19 3 -53 7 -75 10 -67 8 -199 26 -225 30 -14 3 -89 14 -165 25 -77 11
-178 27 -225 35 -47 7 -98 16 -115 19 -66 10 -211 37 -225 41 -8 2 -37 7 -65
11 -27 3 -53 8 -56 10 -3 2 -21 6 -40 9 -370 63 -1122 243 -1641 394 -339 99
-984 305 -1063 341 -11 4 -108 41 -215 80 -107 40 -222 83 -255 95 -138 52
-387 154 -645 265 -263 113 -312 135 -565 253 -133 62 -731 361 -835 418 -67
36 -237 129 -360 197 -25 14 -57 33 -72 43 -14 11 -29 19 -32 19 -3 0 -40 20
-82 45 -41 25 -78 45 -80 45 -3 0 -17 8 -32 19 -22 15 -220 135 -354 214 -35
21 -255 159 -308 194 -19 13 -42 28 -50 33 -31 20 -415 275 -425 282 -5 5
-116 83 -245 175 -369 261 -921 687 -1162 895 -14 13 -37 32 -50 42 -39 33
-361 312 -389 337 -14 13 -45 42 -70 63 -339 300 -961 915 -1278 1265 -13 14
-42 46 -65 71 -183 198 -534 610 -750 880 -81 102 -155 194 -164 205 -73 87
-492 657 -602 820 -30 44 -57 82 -60 85 -5 4 -203 302 -235 352 -5 8 -28 42
-49 74 -30 45 -248 393 -315 504 -34 55 -137 229 -146 245 -6 11 -48 83 -92
160 -169 294 -308 557 -491 925 -157 316 -182 367 -287 600 -31 69 -63 140
-71 158 -49 107 -182 425 -249 592 -42 107 -81 204 -86 215 -77 172 -370 1026
-474 1385 -68 230 -127 441 -139 490 -2 8 -14 51 -25 95 -12 44 -24 91 -27
105 -2 14 -9 39 -15 56 -5 17 -11 40 -14 50 -2 10 -17 75 -34 144 -55 231 -70
294 -101 440 -37 171 -81 394 -115 575 -23 126 -29 159 -40 228 -3 17 -10 59
-16 92 -6 33 -12 71 -14 85 -4 24 -42 277 -50 330 -2 14 -11 81 -20 150 -9 69
-18 132 -20 140 -2 8 -7 49 -10 90 -4 41 -9 83 -11 93 -2 10 -6 46 -9 80 -3
34 -8 73 -10 87 -2 14 -6 59 -10 100 -4 41 -8 86 -10 100 -2 14 -7 61 -10 105
-4 44 -8 96 -10 115 -2 19 -6 78 -9 130 -4 52 -9 111 -11 130 -2 19 -7 87 -10
150 -4 63 -8 142 -10 175 -15 256 -19 466 -20 980 0 506 4 725 20 1015 5 101
16 265 20 310 2 25 7 88 10 140 4 52 8 109 10 125 1 17 6 66 10 110 4 44 8 96
10 115 2 19 6 64 10 100 3 36 8 81 10 100 4 29 15 126 41 345 1 17 6 48 9 70
3 22 8 58 10 80 3 22 7 51 10 65 3 14 7 48 10 76 3 28 7 59 9 70 4 19 14 86
21 134 4 25 41 257 51 315 2 17 9 55 14 85 6 30 12 67 15 83 3 15 7 39 10 55
2 15 7 38 10 52 2 14 6 36 9 50 2 14 7 36 10 50 3 14 8 36 10 50 7 45 57 284
66 320 5 19 11 49 14 65 17 103 132 579 210 865 25 91 56 208 71 260 14 52 32
115 40 140 8 25 26 86 41 135 124 425 386 1173 554 1580 22 55 55 134 72 175
38 94 42 104 69 165 11 28 27 64 34 80 7 17 24 56 39 88 14 32 26 59 26 62 0
2 17 41 39 87 21 46 69 151 107 233 67 147 343 702 427 860 102 192 155 289
235 430 47 83 93 164 103 181 9 17 36 62 58 99 23 37 41 69 41 72 0 2 14 24
30 48 17 24 30 46 30 49 0 5 202 334 275 446 303 469 542 811 859 1230 93 124
172 227 175 230 4 3 31 37 61 75 30 39 86 109 125 156 38 47 86 105 105 129
30 37 100 121 184 220 59 71 192 223 216 250 8 9 30 34 49 55 19 22 70 80 115
129 44 49 88 97 97 107 192 221 838 864 1189 1184 41 37 93 84 115 105 22 20
96 85 165 144 69 60 141 123 160 140 19 17 73 63 120 101 47 38 87 72 90 75 9
10 161 134 294 240 751 599 1578 1159 2441 1651 313 178 968 516 1270 656 88
41 431 195 470 212 11 5 57 25 102 45 45 20 85 36 87 36 3 0 29 11 58 24 59
28 564 229 643 256 28 10 127 45 220 80 496 182 1325 436 1748 536 9 2 25 6
35 8 20 5 240 58 357 86 44 10 91 21 105 24 14 2 79 16 145 31 66 14 165 35
220 46 55 11 107 22 116 24 9 2 34 6 55 9 22 4 46 8 54 11 17 5 26 6 215 40
226 40 253 44 303 51 20 2 62 9 92 14 30 5 105 17 165 25 61 9 121 18 135 20
14 2 50 6 80 10 30 3 80 10 110 15 30 5 78 12 105 14 28 3 68 7 90 10 22 2 65
7 95 11 30 3 69 7 85 9 17 3 66 7 110 11 44 4 87 9 95 10 8 2 53 6 100 10 47
4 101 8 120 10 19 2 78 6 130 10 52 3 111 8 130 10 19 2 87 7 150 10 63 4 142
8 175 10 33 2 141 7 240 10 99 4 182 9 184 11 5 4 1291 -4 1366 -10z"/>
<path d="M22467 36584 c-1 -1 -117 -4 -257 -8 -140 -4 -275 -8 -300 -10 -25
-2 -90 -7 -145 -11 -55 -4 -102 -9 -105 -10 -3 -2 -43 -6 -89 -10 -46 -4 -91
-8 -100 -10 -9 -1 -45 -6 -81 -10 -36 -4 -74 -9 -85 -11 -11 -3 -40 -7 -65
-10 -25 -3 -124 -19 -220 -35 -96 -16 -188 -32 -205 -35 -16 -2 -37 -7 -45 -9
-8 -2 -26 -6 -40 -9 -14 -2 -47 -10 -75 -16 -27 -6 -61 -14 -75 -16 -14 -3
-52 -11 -85 -20 -33 -8 -69 -16 -80 -18 -37 -7 -189 -47 -259 -67 -38 -12 -76
-22 -85 -24 -167 -38 -1010 -340 -1046 -376 -5 -5 -15 -9 -21 -9 -12 0 -45
-14 -269 -120 -109 -51 -291 -142 -360 -180 -27 -15 -79 -43 -115 -62 -407
-218 -992 -613 -1350 -911 -251 -209 -375 -322 -640 -587 -225 -225 -292 -294
-405 -425 -33 -38 -76 -87 -96 -110 -73 -83 -211 -256 -346 -435 -254 -338
-488 -703 -716 -1120 -93 -171 -255 -508 -347 -725 -101 -237 -250 -644 -312
-855 -103 -347 -174 -632 -223 -890 -3 -14 -11 -59 -19 -100 -9 -41 -18 -91
-20 -110 -3 -19 -8 -46 -10 -60 -5 -27 -13 -79 -21 -137 -3 -21 -10 -67 -15
-103 -5 -36 -12 -87 -15 -115 -3 -27 -8 -63 -10 -80 -5 -39 -19 -190 -30 -315
-28 -336 -28 -1312 0 -1625 2 -22 6 -71 10 -110 9 -112 15 -177 20 -215 3 -19
9 -73 15 -120 6 -47 13 -103 16 -125 2 -22 9 -62 14 -90 5 -27 12 -68 15 -90
3 -22 19 -112 36 -200 17 -88 33 -171 36 -185 6 -32 75 -310 103 -415 64 -241
222 -704 302 -885 11 -25 26 -58 33 -75 82 -197 332 -703 375 -760 5 -5 23
-37 41 -70 52 -95 250 -410 260 -413 5 -2 9 -8 9 -13 0 -5 26 -47 57 -92 85
-122 215 -301 222 -307 3 -3 26 -32 51 -65 93 -125 284 -355 445 -534 190
-211 504 -522 730 -722 28 -24 52 -46 55 -49 3 -4 50 -44 105 -90 55 -47 102
-87 105 -90 3 -4 43 -37 90 -74 47 -37 99 -79 115 -92 348 -284 994 -724 1450
-989 174 -101 288 -166 355 -202 36 -20 88 -48 115 -63 142 -78 206 -111 404
-210 296 -148 561 -274 771 -365 41 -18 95 -42 120 -53 78 -36 298 -127 495
-206 105 -42 199 -81 210 -85 11 -5 83 -33 160 -61 77 -28 149 -56 160 -60 73
-32 709 -248 1020 -346 307 -96 1090 -330 1175 -350 8 -2 137 -37 285 -79 331
-92 607 -168 695 -190 8 -2 112 -29 230 -60 118 -31 222 -59 230 -61 8 -1 248
-62 532 -134 285 -71 525 -130 534 -130 15 0 16 16 10 178 -3 97 -8 200 -11
227 -47 494 -153 845 -375 1240 -57 103 -197 297 -300 419 -109 129 -318 331
-455 441 -27 22 -56 46 -64 54 -8 7 -49 39 -90 70 -42 31 -78 58 -81 61 -28
29 -417 283 -540 352 -19 11 -69 40 -110 64 -142 81 -226 125 -475 248 -480
238 -745 351 -1486 636 -330 127 -731 292 -904 371 -22 10 -89 40 -150 67
-350 156 -791 378 -1079 544 -65 37 -120 68 -122 68 -1 0 -23 14 -47 30 -25
17 -48 30 -53 30 -4 0 -22 11 -40 25 -18 14 -35 25 -39 25 -25 0 -670 442
-751 515 -7 5 -35 28 -64 50 -270 207 -641 554 -876 820 -360 408 -669 881
-879 1345 -31 69 -60 134 -65 145 -64 142 -225 608 -244 707 -2 12 -13 57 -24
98 -26 95 -69 291 -77 350 -4 24 -8 47 -10 50 -2 3 -6 26 -10 50 -3 25 -8 52
-10 60 -2 8 -6 35 -9 60 -3 25 -8 55 -10 67 -3 12 -8 50 -12 85 -3 35 -8 70
-9 78 -1 8 -5 51 -9 95 -4 44 -9 98 -12 120 -26 227 -26 932 1 1165 2 19 6 67
10 105 3 39 8 79 10 90 2 11 7 43 10 70 13 110 54 347 81 470 141 643 364
1217 698 1797 113 196 308 486 443 658 24 30 47 60 51 65 10 13 154 187 167
201 6 6 39 45 75 85 181 207 508 513 755 708 168 133 152 121 210 162 405 288
819 521 1245 697 319 133 720 259 1040 327 93 20 200 40 270 51 19 3 42 7 50
9 8 2 38 7 65 10 28 3 75 10 105 15 30 5 87 12 125 15 39 3 81 8 95 10 23 4
137 13 270 21 83 5 566 5 640 0 36 -3 106 -7 155 -11 50 -3 106 -8 125 -10 19
-3 93 -11 164 -20 147 -18 179 -22 256 -36 30 -5 69 -12 85 -14 402 -70 894
-217 1300 -390 184 -78 535 -255 665 -335 8 -5 65 -40 125 -76 95 -58 270
-172 300 -196 5 -4 78 -58 161 -120 186 -139 245 -188 428 -353 122 -110 305
-292 406 -405 41 -45 80 -88 85 -94 6 -6 44 -51 85 -101 41 -49 77 -92 80 -95
3 -3 39 -50 80 -105 41 -55 78 -102 81 -105 13 -9 255 -375 302 -455 26 -44
52 -87 57 -95 5 -8 37 -66 71 -127 l62 -113 1474 0 1475 0 -7 33 c-4 17 -11
37 -15 42 -4 6 -10 24 -14 40 -9 35 -185 482 -226 570 -15 33 -40 89 -56 125
-51 116 -219 452 -288 574 -36 65 -66 120 -66 122 0 1 -34 60 -76 131 -329
555 -695 1048 -1134 1527 -120 131 -463 469 -611 601 -75 67 -374 318 -434
363 -405 311 -725 523 -1125 749 -248 140 -584 306 -818 404 -53 22 -110 46
-127 54 -16 7 -61 25 -100 40 -38 15 -83 33 -100 40 -121 53 -722 248 -864
280 -9 2 -88 22 -175 44 -88 22 -171 42 -185 45 -14 2 -82 16 -151 30 -202 42
-333 66 -445 81 -73 10 -110 15 -150 20 -22 3 -58 8 -80 12 -22 3 -53 7 -70 9
-80 6 -165 15 -182 18 -10 2 -63 7 -118 11 -55 4 -116 8 -135 10 -59 6 -618
23 -623 19z"/>
<path d="M19104 27548 c4 -101 9 -199 11 -218 2 -19 6 -64 10 -100 6 -64 20
-161 30 -210 2 -13 7 -40 10 -60 4 -27 47 -204 69 -285 87 -320 301 -712 545
-995 92 -108 156 -174 323 -333 10 -10 62 -54 116 -99 53 -44 108 -90 122
-101 131 -110 526 -373 747 -498 200 -113 323 -178 528 -279 322 -158 336
-164 690 -317 125 -54 507 -207 782 -312 368 -141 790 -315 996 -410 34 -16
109 -50 167 -76 239 -108 602 -291 885 -447 151 -84 178 -99 207 -119 14 -11
29 -19 32 -19 9 0 260 -156 411 -255 471 -311 886 -650 1230 -1005 122 -126
145 -151 205 -221 30 -35 58 -66 61 -69 18 -14 235 -292 307 -393 244 -342
462 -741 611 -1119 172 -434 301 -924 356 -1353 3 -27 8 -63 10 -80 12 -87 16
-125 21 -180 2 -33 7 -73 9 -90 27 -223 27 -915 0 -1190 -2 -22 -7 -69 -10
-105 -4 -36 -8 -74 -10 -85 -2 -11 -7 -42 -10 -70 -4 -27 -9 -63 -11 -80 -2
-16 -6 -48 -9 -70 -5 -35 -91 -464 -99 -490 -2 -5 -6 -23 -10 -40 -77 -302
-193 -642 -316 -927 -62 -141 -193 -411 -246 -505 -124 -220 -245 -415 -349
-562 -44 -62 -87 -123 -95 -135 -30 -44 -197 -257 -235 -300 -5 -6 -37 -43
-70 -81 -103 -120 -145 -165 -310 -330 -373 -373 -744 -661 -1211 -941 -123
-74 -487 -263 -604 -313 -30 -13 -75 -33 -100 -44 -25 -10 -54 -23 -65 -28
-47 -21 -268 -104 -360 -136 -93 -32 -450 -137 -498 -147 -12 -3 -94 -21 -182
-40 -88 -19 -176 -37 -195 -40 -19 -3 -44 -7 -55 -10 -11 -2 -40 -7 -65 -11
-25 -4 -52 -9 -60 -10 -8 -1 -40 -6 -70 -10 -30 -3 -66 -8 -80 -10 -14 -3 -56
-7 -95 -10 -38 -3 -77 -8 -85 -10 -8 -2 -62 -7 -120 -11 -58 -3 -127 -8 -155
-10 -65 -5 -562 -5 -640 0 -153 11 -243 17 -275 21 -19 2 -60 7 -90 10 -112
13 -294 38 -350 50 -13 2 -42 7 -65 10 -22 3 -47 8 -55 10 -8 2 -31 7 -50 10
-307 52 -921 244 -1220 382 -30 14 -73 32 -95 41 -121 47 -503 253 -711 383
-136 84 -452 304 -474 329 -3 3 -25 21 -50 40 -71 55 -77 60 -194 160 -211
180 -460 427 -616 609 -30 35 -60 69 -65 75 -31 32 -183 226 -257 326 -149
201 -335 492 -438 685 -24 44 -48 88 -54 98 -10 16 -92 17 -1488 17 l-1476 0
13 -37 c144 -389 173 -460 282 -708 54 -122 279 -578 313 -635 10 -18 89 -155
105 -185 6 -11 33 -57 60 -103 28 -45 55 -90 60 -100 40 -70 235 -366 324
-492 188 -266 418 -555 616 -776 6 -6 46 -51 90 -100 150 -167 480 -491 670
-658 97 -85 109 -95 200 -171 33 -27 62 -52 65 -55 72 -72 582 -442 800 -580
63 -40 131 -82 150 -95 363 -232 945 -521 1425 -707 364 -141 927 -315 1178
-364 10 -2 26 -5 35 -8 9 -3 28 -7 42 -10 14 -2 55 -11 93 -20 37 -9 82 -18
100 -21 17 -3 43 -8 57 -10 87 -18 89 -18 245 -44 66 -11 140 -22 165 -25 25
-4 56 -8 70 -10 27 -5 85 -12 165 -21 28 -3 65 -7 83 -9 18 -3 67 -7 110 -11
42 -3 97 -8 122 -11 41 -4 121 -9 300 -19 93 -5 720 -5 815 0 148 8 280 16
315 20 19 2 69 6 110 9 41 4 89 8 105 10 17 2 57 7 90 11 33 4 71 9 85 11 131
16 140 18 208 28 15 3 47 8 72 11 25 3 106 17 180 31 74 14 149 28 165 30 17
3 59 12 95 20 36 9 76 18 89 20 12 3 53 12 90 20 36 9 73 17 81 19 227 47 986
289 1145 365 11 5 56 23 100 41 325 126 806 367 1185 592 408 243 965 645
1236 892 6 5 40 35 75 65 35 30 88 77 119 105 87 78 538 533 610 614 36 41 72
82 80 90 8 9 51 59 95 112 44 52 95 113 113 135 115 137 309 397 429 574 43
63 80 117 83 120 8 7 166 258 227 360 172 287 366 662 497 960 43 96 84 189
92 207 8 17 14 37 14 45 0 8 3 18 7 22 16 15 125 308 199 536 55 167 157 509
169 567 3 17 20 87 29 123 24 91 71 313 102 480 38 209 40 220 59 375 2 11 8
58 14 105 31 230 40 327 59 625 10 163 9 1056 -1 1235 -11 191 -20 305 -32
415 -2 22 -7 65 -10 95 -3 30 -7 66 -9 80 -2 14 -8 52 -11 85 -4 33 -9 69 -10
80 -5 37 -27 180 -31 200 -3 11 -7 36 -10 55 -13 81 -57 301 -76 380 -11 47
-22 96 -25 110 -17 91 -160 589 -190 660 -3 8 -7 20 -9 25 -5 20 -85 240 -95
265 -7 14 -15 34 -19 45 -135 366 -464 1010 -680 1335 -5 8 -42 65 -82 125
-39 61 -74 112 -77 115 -3 3 -24 32 -46 65 -268 398 -790 994 -1215 1385 -57
52 -108 100 -114 106 -26 24 -126 113 -180 159 -33 28 -64 55 -70 60 -67 61
-377 310 -499 400 -134 99 -182 135 -192 143 -138 105 -907 612 -929 612 -2 0
-56 32 -121 71 -542 324 -1340 719 -2030 1003 -88 37 -169 70 -180 75 -11 5
-51 21 -90 36 -38 14 -83 32 -100 40 -37 17 -214 84 -360 136 -60 22 -119 44
-130 49 -179 78 -1272 424 -1960 619 -481 137 -767 217 -808 226 -10 2 -86 23
-170 46 -84 22 -159 43 -167 44 -8 2 -51 13 -95 25 -202 54 -284 75 -485 127
-118 30 -222 56 -230 58 -8 2 -161 40 -338 84 -178 45 -331 81 -339 81 -14 0
-15 -22 -9 -182z"/>
</g>
</svg>
